<svg xmlns="http://www.w3.org/2000/svg" width="45" height="46" viewBox="0 0 45 46">
    <defs>
        <filter id="m5lq7qc8ma" x="0" y="0" width="26" height="46" filterUnits="userSpaceOnUse">
            <feOffset dx="-2"/>
            <feGaussianBlur stdDeviation="1" result="blur"/>
            <feFlood flood-opacity=".161"/>
            <feComposite operator="in" in2="blur"/>
            <feComposite in="SourceGraphic"/>
        </filter>
    </defs>
    <g transform="translate(1 1)">
        <g style="filter:url(#m5lq7qc8ma)">
            <path data-name="그림자" d="M20 0c-.083 8.033-.154 33.893 0 40a20 20 0 0 1 0-40z" transform="translate(4 2)" style="fill:#fff"/>
        </g>
        <circle data-name="타원 110" cx="20" cy="20" r="20" transform="translate(3 2)" style="fill:#fff"/>
        <g data-name="그룹 8794">
            <path data-name="패스 93084" d="m26.707 21.293-5-5a1 1 0 1 0-1.414 1.414L24.586 22l-4.293 4.293a1 1 0 1 0 1.414 1.414l5-5a1 1 0 0 0 0-1.414z"/>
        </g>
    </g>
</svg>
