<svg xmlns="http://www.w3.org/2000/svg" width="45" height="46" viewBox="0 0 45 46">
    <defs>
        <filter id="gahow42ssa" x="19" y="0" width="26" height="46" filterUnits="userSpaceOnUse">
            <feOffset dx="2"/>
            <feGaussianBlur stdDeviation="1" result="blur"/>
            <feFlood flood-opacity=".161"/>
            <feComposite operator="in" in2="blur"/>
            <feComposite in="SourceGraphic"/>
        </filter>
    </defs>
    <g transform="translate(0 1)">
        <g style="filter:url(#gahow42ssa)">
            <path data-name="그림자" d="M0 0c.083 8.033.154 33.893 0 40a20 20 0 0 0 20-20A20 20 0 0 0 0 0z" transform="translate(20 2)" style="fill:#fff"/>
        </g>
        <circle data-name="타원 110" cx="20" cy="20" r="20" transform="translate(1 2)" style="fill:#fff"/>
        <g data-name="그룹 8794">
            <path data-name="패스 93084" d="m17.293 21.293 5-5a1 1 0 1 1 1.414 1.414L19.414 22l4.293 4.293a1 1 0 1 1-1.414 1.414l-5-5a1 1 0 0 1 0-1.414z"/>
        </g>
    </g>
</svg>
